<svg id="Layer_1" xmlns="http://www.w3.org/2000/svg" viewBox="0 0 40 70"><style>.st0{fill:none}</style><title>Alert transparent</title><path class="st0" d="M19.7 58.2c-1.9 0-3.5 1.5-3.5 3.3 0 1.8 1.6 3.3 3.5 3.3s3.5-1.5 3.5-3.3c0-1.8-1.6-3.3-3.5-3.3zM4.6 56.4h30.2V13.3H4.6v43.1zm23.3-33.1c.2-.3.5-.4.9-.4.4.1.6.5.5.8v.1l-3.5 11.5-3 9.9c-.6 1.9-2.8 3-4.9 2.5-2.2-.5-3.4-2.5-2.9-4.4.1-.4.3-.7.5-1l12.4-19zm-17.1 9.3l.3-.6 6.9-8.8c.2-.3.5-.4.8-.3.4.1.5.5.4.8l-4 10.3c-.4 1-1.7 1.6-2.9 1.2-1.3-.4-1.9-1.6-1.5-2.6z"/><path d="M33.1 0H6.9C3.1 0 0 3 0 6.6v56.8C0 67 3.1 70 6.9 70h26.2c3.8 0 6.9-3 6.9-6.6V6.6C40 3 36.9 0 33.1 0zM19.7 64.9c-1.9 0-3.5-1.5-3.5-3.3 0-1.8 1.6-3.3 3.5-3.3s3.5 1.5 3.5 3.3c0 1.8-1.6 3.3-3.5 3.3zm15.1-8.5H4.6V13.3h30.2v43.1z"/><path d="M12.2 35.2c1.2.4 2.5-.1 2.9-1.2l4.1-10.2c.1-.3-.1-.7-.4-.8-.3-.1-.7 0-.8.3L11.2 32c-.1.2-.3.3-.3.6-.5 1 .1 2.2 1.3 2.6zM15 43.4c-.6 1.9.7 3.9 2.9 4.4 2.1.5 4.3-.6 4.9-2.5l3-9.9 3.5-11.5v-.1c.1-.4-.1-.7-.5-.8-.4-.1-.7.1-.9.4l-12.3 19c-.3.3-.5.6-.6 1z"/></svg>